<svg viewBox="0 0 40 40" fill="none" xmlns="http://www.w3.org/2000/svg">
  <defs>
    <linearGradient id="wp-grad-1" x1="0%" y1="0%" x2="100%" y2="100%">
      <stop offset="0%" stopColor="#0EA5E9" />
      <stop offset="50%" stopColor="#2DD4BF" />
      <stop offset="100%" stopColor="#8B5CF6" />
    </linearGradient>
    <linearGradient id="wp-grad-2" x1="100%" y1="0%" x2="0%" y2="100%">
      <stop offset="0%" stopColor="#1E3A8A" />
      <stop offset="50%" stopColor="#0F766E" />
      <stop offset="100%" stopColor="#6D28D9" />
    </linearGradient>
    <filter id="wp-glow" x="-20%" y="-20%" width="140%" height="140%">
      <feGaussianBlur stdDeviation="2" result="blur" />
      <feComposite in="SourceGraphic" in2="blur" operator="over" />
    </filter>
  </defs>
  <g filter="url(#wp-glow)">
    <path d="M20 2 L 23.5 16.5 L 38 20 L 23.5 23.5 L 20 38 L 16.5 23.5 L 2 20 L 16.5 16.5 Z" fill="url(#wp-grad-1)" opacity="0.6" />
    <path d="M20 8 L 22 18 L 32 20 L 22 22 L 20 32 L 18 22 L 8 20 L 18 18 Z" fill="url(#wp-grad-2)" opacity="0.8" transform="rotate(45 20 20)" />
    <path d="M20 6 L 22 18 L 34 20 L 22 22 L 20 34 L 18 22 L 6 20 L 18 18 Z" fill="#FFFFFF" opacity="0.9" />
    <circle cx="20" cy="20" r="2" fill="#FFFFFF" />
  </g>
</svg>
